<svg width="24" height="24" viewBox="0 0 24 24" fill="none" xmlns="http://www.w3.org/2000/svg">
  <path d="M12 17C12.5523 17 13 16.5523 13 16C13 15.4477 12.5523 15 12 15C11.4477 15 11 15.4477 11 16C11 16.5523 11.4477 17 12 17Z" fill="currentColor"/>
  <path d="M18 9H17V7C17 4.243 14.757 2 12 2C9.243 2 7 4.243 7 7V9H6C4.897 9 4 9.897 4 11V20C4 21.103 4.897 22 6 22H18C19.103 22 20 21.103 20 20V11C20 9.897 19.103 9 18 9ZM9 7C9 5.346 10.346 4 12 4C13.654 4 15 5.346 15 7V9H9V7ZM18 20H6V11H18V20Z" fill="currentColor"/>
</svg>